<svg xmlns="http://www.w3.org/2000/svg" version="1.1" xmlns:xlink="http://www.w3.org/1999/xlink" xmlns:svgjs="http://svgjs.dev/svgjs" width="1000" height="141" viewBox="0 0 1000 141"><g transform="matrix(1,0,0,1,-0.6060606060606233,0.1637676677025155)"><svg viewBox="0 0 396 56" data-background-color="#ffffff" preserveAspectRatio="xMidYMid meet" height="141" width="1000" xmlns="http://www.w3.org/2000/svg" xmlns:xlink="http://www.w3.org/1999/xlink"><g id="tight-bounds" transform="matrix(1,0,0,1,0.2400000000000091,-0.06504247795277251)"><svg viewBox="0 0 395.52 56.13008495590554" height="56.13008495590554" width="395.52"><g><svg viewBox="0 0 466.96789953849105 66.26958907963255" height="56.13008495590554" width="395.52"><g><rect width="2.2696688139067076" height="57.54233494613535" x="63.23668932692284" y="4.363627066748602" fill="#111111" opacity="1" stroke-width="0" stroke="transparent" fill-opacity="1" class="rect-r$-0" data-fill-palette-color="primary" rx="1%" id="r$-0" data-palette-color="#111111"></rect></g><g transform="matrix(1,0,0,1,71.44789953849109,9.158821645593214)"><svg viewBox="0 0 395.52 47.951945788446125" height="47.951945788446125" width="395.52"><g id="textblocktransform"><svg viewBox="0 0 395.52 47.951945788446125" height="47.951945788446125" width="395.52" id="textblock"><g><svg viewBox="0 0 395.52 25.167917948717946" height="25.167917948717946" width="395.52"><g transform="matrix(1,0,0,1,0,0)"><svg width="395.52" viewBox="0.9 -36.83 584.95 37.23" height="25.167917948717946" data-palette-color="#111111"><path d="M20.15-6.1L20.15-6.1Q21.9-6.1 23.25-6.4 24.6-6.7 25.8-7.2L25.8-7.2 25.8-12.73 22.2-12.73Q21.4-12.73 20.95-13.15 20.5-13.58 20.5-14.23L20.5-14.23 20.5-18.88 33.45-18.88 33.45-3.5Q32.05-2.48 30.54-1.74 29.03-1 27.31-0.53 25.6-0.05 23.66 0.18 21.73 0.4 19.5 0.4L19.5 0.4Q15.5 0.4 12.1-1.01 8.7-2.43 6.21-4.91 3.73-7.4 2.31-10.81 0.9-14.23 0.9-18.23L0.9-18.23Q0.9-22.3 2.25-25.71 3.6-29.13 6.11-31.6 8.63-34.08 12.19-35.45 15.75-36.83 20.15-36.83L20.15-36.83Q22.43-36.83 24.43-36.45 26.43-36.08 28.11-35.43 29.8-34.77 31.2-33.88 32.6-32.98 33.7-31.93L33.7-31.93 31.25-28.2Q30.9-27.68 30.41-27.38 29.93-27.08 29.35-27.08L29.35-27.08Q28.6-27.08 27.8-27.58L27.8-27.58Q26.8-28.18 25.91-28.61 25.03-29.05 24.1-29.33 23.18-29.6 22.15-29.73 21.13-29.85 19.85-29.85L19.85-29.85Q17.48-29.85 15.58-29.01 13.68-28.18 12.34-26.65 11-25.13 10.28-22.99 9.55-20.85 9.55-18.23L9.55-18.23Q9.55-15.33 10.35-13.08 11.15-10.83 12.56-9.28 13.98-7.73 15.91-6.91 17.85-6.1 20.15-6.1ZM49.2-13.48L47.05-13.48 47.05 0 38.6 0 38.6-36.43 50.45-36.43Q54.4-36.43 57.19-35.61 59.97-34.8 61.74-33.35 63.5-31.9 64.3-29.93 65.1-27.95 65.1-25.63L65.1-25.63Q65.1-23.85 64.62-22.28 64.15-20.7 63.21-19.36 62.27-18.03 60.91-16.98 59.55-15.93 57.77-15.25L57.77-15.25Q58.62-14.83 59.36-14.2 60.1-13.58 60.65-12.68L60.65-12.68 68.4 0 60.75 0Q58.62 0 57.7-1.6L57.7-1.6 51.65-12.18Q51.25-12.88 50.71-13.18 50.17-13.48 49.2-13.48L49.2-13.48ZM47.05-30.1L47.05-19.3 50.45-19.3Q52.17-19.3 53.39-19.74 54.6-20.18 55.37-20.95 56.15-21.73 56.5-22.76 56.85-23.8 56.85-25L56.85-25Q56.85-27.4 55.29-28.75 53.72-30.1 50.45-30.1L50.45-30.1 47.05-30.1ZM81.09-36.43L81.09 0 72.59 0 72.59-36.43 81.09-36.43ZM92.29-36.43L92.29-36.43Q92.84-36.43 93.22-36.38 93.59-36.33 93.89-36.19 94.19-36.05 94.47-35.8 94.74-35.55 95.09-35.13L95.09-35.13 112.39-13.25Q112.29-14.3 112.24-15.29 112.19-16.28 112.19-17.15L112.19-17.15 112.19-36.43 119.64-36.43 119.64 0 115.24 0Q114.27 0 113.59-0.3 112.92-0.6 112.29-1.4L112.29-1.4 95.12-23.1Q95.19-22.15 95.24-21.24 95.29-20.33 95.29-19.53L95.29-19.53 95.29 0 87.84 0 87.84-36.43 92.29-36.43ZM142.79-6.1L142.79-6.1Q144.54-6.1 145.89-6.4 147.24-6.7 148.44-7.2L148.44-7.2 148.44-12.73 144.84-12.73Q144.04-12.73 143.59-13.15 143.14-13.58 143.14-14.23L143.14-14.23 143.14-18.88 156.09-18.88 156.09-3.5Q154.69-2.48 153.18-1.74 151.67-1 149.95-0.53 148.24-0.05 146.3 0.18 144.37 0.4 142.14 0.4L142.14 0.4Q138.14 0.4 134.74-1.01 131.34-2.43 128.85-4.91 126.37-7.4 124.95-10.81 123.54-14.23 123.54-18.23L123.54-18.23Q123.54-22.3 124.89-25.71 126.24-29.13 128.75-31.6 131.27-34.08 134.83-35.45 138.39-36.83 142.79-36.83L142.79-36.83Q145.07-36.83 147.07-36.45 149.07-36.08 150.75-35.43 152.44-34.77 153.84-33.88 155.24-32.98 156.34-31.93L156.34-31.93 153.89-28.2Q153.54-27.68 153.05-27.38 152.57-27.08 151.99-27.08L151.99-27.08Q151.24-27.08 150.44-27.58L150.44-27.58Q149.44-28.18 148.55-28.61 147.67-29.05 146.74-29.33 145.82-29.6 144.79-29.73 143.77-29.85 142.49-29.85L142.49-29.85Q140.12-29.85 138.22-29.01 136.32-28.18 134.98-26.65 133.64-25.13 132.92-22.99 132.19-20.85 132.19-18.23L132.19-18.23Q132.19-15.33 132.99-13.08 133.79-10.83 135.2-9.28 136.62-7.73 138.55-6.91 140.49-6.1 142.79-6.1ZM197.19-18.23L197.19-18.23Q197.19-14.28 195.83-10.88 194.46-7.48 191.99-4.96 189.51-2.45 186.03-1.03 182.54 0.4 178.29 0.4L178.29 0.4Q174.04 0.4 170.54-1.03 167.04-2.45 164.55-4.96 162.06-7.48 160.7-10.88 159.34-14.28 159.34-18.23L159.34-18.23Q159.34-22.18 160.7-25.58 162.06-28.98 164.55-31.48 167.04-33.98 170.54-35.4 174.04-36.83 178.29-36.83L178.29-36.83Q182.54-36.83 186.03-35.39 189.51-33.95 191.99-31.45 194.46-28.95 195.83-25.55 197.19-22.15 197.19-18.23ZM188.54-18.23L188.54-18.23Q188.54-20.93 187.84-23.09 187.14-25.25 185.83-26.75 184.51-28.25 182.61-29.05 180.71-29.85 178.29-29.85L178.29-29.85Q175.84-29.85 173.93-29.05 172.01-28.25 170.7-26.75 169.39-25.25 168.69-23.09 167.99-20.93 167.99-18.23L167.99-18.23Q167.99-15.5 168.69-13.34 169.39-11.18 170.7-9.68 172.01-8.18 173.93-7.39 175.84-6.6 178.29-6.6L178.29-6.6Q180.71-6.6 182.61-7.39 184.51-8.18 185.83-9.68 187.14-11.18 187.84-13.34 188.54-15.5 188.54-18.23ZM221.48-13.48L219.33-13.48 219.33 0 210.88 0 210.88-36.43 222.73-36.43Q226.68-36.43 229.47-35.61 232.26-34.8 234.02-33.35 235.78-31.9 236.58-29.93 237.38-27.95 237.38-25.63L237.38-25.63Q237.38-23.85 236.91-22.28 236.43-20.7 235.5-19.36 234.56-18.03 233.2-16.98 231.83-15.93 230.06-15.25L230.06-15.25Q230.91-14.83 231.65-14.2 232.38-13.58 232.93-12.68L232.93-12.68 240.68 0 233.03 0Q230.91 0 229.98-1.6L229.98-1.6 223.93-12.18Q223.53-12.88 223-13.18 222.46-13.48 221.48-13.48L221.48-13.48ZM219.33-30.1L219.33-19.3 222.73-19.3Q224.46-19.3 225.67-19.74 226.88-20.18 227.66-20.95 228.43-21.73 228.78-22.76 229.13-23.8 229.13-25L229.13-25Q229.13-27.4 227.57-28.75 226.01-30.1 222.73-30.1L222.73-30.1 219.33-30.1ZM278.83-18.23L278.83-18.23Q278.83-14.28 277.47-10.88 276.11-7.48 273.63-4.96 271.16-2.45 267.67-1.03 264.18 0.4 259.93 0.4L259.93 0.4Q255.68 0.4 252.18-1.03 248.68-2.45 246.19-4.96 243.71-7.48 242.34-10.88 240.98-14.28 240.98-18.23L240.98-18.23Q240.98-22.18 242.34-25.58 243.71-28.98 246.19-31.48 248.68-33.98 252.18-35.4 255.68-36.83 259.93-36.83L259.93-36.83Q264.18-36.83 267.67-35.39 271.16-33.95 273.63-31.45 276.11-28.95 277.47-25.55 278.83-22.15 278.83-18.23ZM270.18-18.23L270.18-18.23Q270.18-20.93 269.48-23.09 268.78-25.25 267.47-26.75 266.16-28.25 264.25-29.05 262.36-29.85 259.93-29.85L259.93-29.85Q257.48-29.85 255.57-29.05 253.66-28.25 252.34-26.75 251.03-25.25 250.33-23.09 249.63-20.93 249.63-18.23L249.63-18.23Q249.63-15.5 250.33-13.34 251.03-11.18 252.34-9.68 253.66-8.18 255.57-7.39 257.48-6.6 259.93-6.6L259.93-6.6Q262.36-6.6 264.25-7.39 266.16-8.18 267.47-9.68 268.78-11.18 269.48-13.34 270.18-15.5 270.18-18.23ZM297.43 0L282.88 0 282.88-36.43 296.28-36.43Q300.05-36.43 302.7-35.73 305.35-35.02 307.03-33.75 308.7-32.48 309.46-30.65 310.23-28.83 310.23-26.58L310.23-26.58Q310.23-25.35 309.88-24.21 309.53-23.08 308.78-22.08 308.03-21.08 306.85-20.26 305.68-19.45 304.03-18.85L304.03-18.85Q307.63-17.98 309.35-16.01 311.08-14.05 311.08-10.98L311.08-10.98Q311.08-8.65 310.18-6.65 309.28-4.65 307.54-3.16 305.8-1.68 303.25-0.84 300.7 0 297.43 0L297.43 0ZM297.23-15.45L291.33-15.45 291.33-6.38 297.28-6.38Q298.95-6.38 300.01-6.8 301.08-7.23 301.68-7.9 302.28-8.58 302.5-9.43 302.73-10.28 302.73-11.15L302.73-11.15Q302.73-12.15 302.46-12.95 302.2-13.75 301.56-14.3 300.93-14.85 299.88-15.15 298.83-15.45 297.23-15.45L297.23-15.45ZM291.33-30.1L291.33-21.1 295.73-21.1Q297.13-21.1 298.25-21.3 299.38-21.5 300.17-22 300.95-22.5 301.37-23.38 301.78-24.25 301.78-25.58L301.78-25.58Q301.78-26.88 301.45-27.74 301.13-28.6 300.45-29.13 299.78-29.65 298.74-29.88 297.7-30.1 296.28-30.1L296.28-30.1 291.33-30.1ZM330.23 0L315.68 0 315.68-36.43 329.07-36.43Q332.85-36.43 335.5-35.73 338.15-35.02 339.82-33.75 341.5-32.48 342.26-30.65 343.03-28.83 343.03-26.58L343.03-26.58Q343.03-25.35 342.68-24.21 342.32-23.08 341.57-22.08 340.82-21.08 339.65-20.26 338.48-19.45 336.82-18.85L336.82-18.85Q340.43-17.98 342.15-16.01 343.88-14.05 343.88-10.98L343.88-10.98Q343.88-8.65 342.98-6.65 342.07-4.65 340.34-3.16 338.6-1.68 336.05-0.84 333.5 0 330.23 0L330.23 0ZM330.03-15.45L324.13-15.45 324.13-6.38 330.07-6.38Q331.75-6.38 332.81-6.8 333.88-7.23 334.48-7.9 335.07-8.58 335.3-9.43 335.53-10.28 335.53-11.15L335.53-11.15Q335.53-12.15 335.26-12.95 335-13.75 334.36-14.3 333.73-14.85 332.68-15.15 331.63-15.45 330.03-15.45L330.03-15.45ZM324.13-30.1L324.13-21.1 328.53-21.1Q329.93-21.1 331.05-21.3 332.18-21.5 332.96-22 333.75-22.5 334.16-23.38 334.57-24.25 334.57-25.58L334.57-25.58Q334.57-26.88 334.25-27.74 333.93-28.6 333.25-29.13 332.57-29.65 331.54-29.88 330.5-30.1 329.07-30.1L329.07-30.1 324.13-30.1ZM348.47-36.43L371.92-36.43 371.92-29.93 356.97-29.93 356.97-21.43 368.42-21.43 368.42-15.18 356.97-15.18 356.97-6.5 371.92-6.5 371.92 0 348.47 0 348.47-36.43ZM387.32-13.48L385.17-13.48 385.17 0 376.72 0 376.72-36.43 388.57-36.43Q392.52-36.43 395.31-35.61 398.1-34.8 399.86-33.35 401.62-31.9 402.42-29.93 403.22-27.95 403.22-25.63L403.22-25.63Q403.22-23.85 402.75-22.28 402.27-20.7 401.33-19.36 400.4-18.03 399.03-16.98 397.67-15.93 395.9-15.25L395.9-15.25Q396.75-14.83 397.48-14.2 398.22-13.58 398.77-12.68L398.77-12.68 406.52 0 398.87 0Q396.75 0 395.82-1.6L395.82-1.6 389.77-12.18Q389.37-12.88 388.83-13.18 388.3-13.48 387.32-13.48L387.32-13.48ZM385.17-30.1L385.17-19.3 388.57-19.3Q390.3-19.3 391.51-19.74 392.72-20.18 393.5-20.95 394.27-21.73 394.62-22.76 394.97-23.8 394.97-25L394.97-25Q394.97-27.4 393.41-28.75 391.85-30.1 388.57-30.1L388.57-30.1 385.17-30.1ZM441.32-36.43L428.12-13.85 428.12 0 419.67 0 419.67-13.85 406.47-36.43 413.92-36.43Q415.02-36.43 415.67-35.91 416.32-35.4 416.72-34.6L416.72-34.6 421.87-24Q422.49-22.73 423.02-21.65 423.54-20.58 423.94-19.53L423.94-19.53Q424.32-20.6 424.84-21.68 425.37-22.75 425.97-24L425.97-24 431.07-34.6Q431.22-34.93 431.48-35.25 431.74-35.58 432.08-35.84 432.42-36.1 432.86-36.26 433.29-36.43 433.82-36.43L433.82-36.43 441.32-36.43ZM475.86-32.95L473.76-29.03Q473.39-28.43 472.98-28.13 472.56-27.83 471.91-27.83L471.91-27.83Q471.34-27.83 470.68-28.19 470.01-28.55 469.18-29 468.34-29.45 467.26-29.81 466.19-30.18 464.81-30.18L464.81-30.18Q462.44-30.18 461.28-29.16 460.11-28.15 460.11-26.43L460.11-26.43Q460.11-25.33 460.81-24.6 461.51-23.88 462.65-23.35 463.79-22.83 465.25-22.39 466.71-21.95 468.24-21.41 469.76-20.88 471.23-20.15 472.69-19.43 473.83-18.3 474.96-17.18 475.66-15.56 476.36-13.95 476.36-11.68L476.36-11.68Q476.36-9.15 475.49-6.95 474.61-4.75 472.95-3.11 471.29-1.48 468.85-0.54 466.41 0.4 463.31 0.4L463.31 0.4Q461.61 0.4 459.85 0.05 458.09-0.3 456.44-0.94 454.79-1.58 453.34-2.45 451.89-3.33 450.81-4.4L450.81-4.4 453.31-8.35Q453.59-8.8 454.09-9.08 454.59-9.35 455.16-9.35L455.16-9.35Q455.91-9.35 456.68-8.88 457.44-8.4 458.4-7.83 459.36-7.25 460.61-6.78 461.86-6.3 463.56-6.3L463.56-6.3Q465.86-6.3 467.14-7.31 468.41-8.33 468.41-10.53L468.41-10.53Q468.41-11.8 467.71-12.6 467.01-13.4 465.88-13.93 464.74-14.45 463.29-14.85 461.84-15.25 460.31-15.74 458.79-16.23 457.34-16.94 455.89-17.65 454.75-18.81 453.61-19.98 452.91-21.71 452.21-23.45 452.21-26L452.21-26Q452.21-28.05 453.04-30 453.86-31.95 455.46-33.48 457.06-35 459.39-35.91 461.71-36.83 464.71-36.83L464.71-36.83Q466.39-36.83 467.98-36.56 469.56-36.3 470.99-35.79 472.41-35.27 473.65-34.56 474.89-33.85 475.86-32.95L475.86-32.95ZM512.36-36.43L512.36 0 503.86 0 503.86-15.4 489.06-15.4 489.06 0 480.56 0 480.56-36.43 489.06-36.43 489.06-21.2 503.86-21.2 503.86-36.43 512.36-36.43ZM554.31-18.23L554.31-18.23Q554.31-14.28 552.94-10.88 551.58-7.48 549.11-4.96 546.63-2.45 543.14-1.03 539.66 0.4 535.41 0.4L535.41 0.4Q531.16 0.4 527.66-1.03 524.16-2.45 521.67-4.96 519.18-7.48 517.82-10.88 516.46-14.28 516.46-18.23L516.46-18.23Q516.46-22.18 517.82-25.58 519.18-28.98 521.67-31.48 524.16-33.98 527.66-35.4 531.16-36.83 535.41-36.83L535.41-36.83Q539.66-36.83 543.14-35.39 546.63-33.95 549.11-31.45 551.58-28.95 552.94-25.55 554.31-22.15 554.31-18.23ZM545.66-18.23L545.66-18.23Q545.66-20.93 544.96-23.09 544.26-25.25 542.94-26.75 541.63-28.25 539.73-29.05 537.83-29.85 535.41-29.85L535.41-29.85Q532.96-29.85 531.04-29.05 529.13-28.25 527.82-26.75 526.51-25.25 525.81-23.09 525.11-20.93 525.11-18.23L525.11-18.23Q525.11-15.5 525.81-13.34 526.51-11.18 527.82-9.68 529.13-8.18 531.04-7.39 532.96-6.6 535.41-6.6L535.41-6.6Q537.83-6.6 539.73-7.39 541.63-8.18 542.94-9.68 544.26-11.18 544.96-13.34 545.66-15.5 545.66-18.23ZM571.2-12.18L566.8-12.18 566.8 0 558.35 0 558.35-36.43 571.2-36.43Q575.05-36.43 577.82-35.51 580.58-34.6 582.37-33 584.15-31.4 585-29.23 585.85-27.05 585.85-24.53L585.85-24.53Q585.85-21.8 584.98-19.53 584.1-17.25 582.3-15.63 580.5-14 577.74-13.09 574.98-12.18 571.2-12.18L571.2-12.18ZM566.8-30.1L566.8-18.55 571.2-18.55Q574.5-18.55 575.95-20.13 577.4-21.7 577.4-24.53L577.4-24.53Q577.4-25.78 577.03-26.8 576.65-27.83 575.89-28.56 575.13-29.3 573.97-29.7 572.8-30.1 571.2-30.1L571.2-30.1 566.8-30.1Z" opacity="1" transform="matrix(1,0,0,1,0,0)" fill="#111111" class="wordmark-text-0" data-fill-palette-color="primary" id="text-0"></path></svg></g></svg></g><g transform="matrix(1,0,0,1,0,31.109459346379484)"><svg viewBox="0 0 232.209792 16.842486442066644" height="16.842486442066644" width="232.209792"><g transform="matrix(1,0,0,1,0,0)"><svg width="232.209792" viewBox="2.2 -37.45 654.15 47.45" height="16.842486442066644" data-palette-color="#111111"><path d="M6.85 0L2.2 0 2.2-25.8 6.85-25.8 6.85-22.45 7.1-22.45Q7.7-24.1 8.83-25.25 9.95-26.4 12.05-26.4L12.05-26.4Q14.1-26.4 15.23-25.28 16.35-24.15 16.65-22.2L16.65-22.2 16.85-22.2Q17.55-23.95 18.8-25.18 20.05-26.4 22.4-26.4L22.4-26.4Q25.4-26.4 26.58-24.3 27.75-22.2 27.75-18.15L27.75-18.15 27.75 0 23.1 0 23.1-17.45Q23.1-20.15 22.45-21.18 21.8-22.2 20.35-22.2L20.35-22.2Q19.05-22.2 18.18-21.33 17.3-20.45 17.3-18.7L17.3-18.7 17.3 0 12.65 0 12.65-17.45Q12.65-20.15 12.03-21.18 11.4-22.2 9.95-22.2L9.95-22.2Q8.6-22.2 7.73-21.33 6.85-20.45 6.85-18.7L6.85-18.7 6.85 0ZM46.6-30.5L46.6-30.5Q44.5-30.5 43.67-31.35 42.85-32.2 42.85-33.45L42.85-33.45 42.85-34.5Q42.85-35.75 43.67-36.6 44.5-37.45 46.55-37.45L46.55-37.45Q48.65-37.45 49.47-36.6 50.3-35.75 50.3-34.5L50.3-34.5 50.3-33.45Q50.3-32.2 49.47-31.35 48.65-30.5 46.6-30.5ZM35.05 0L35.05-4.4 43.85-4.4 43.85-21.4 35.05-21.4 35.05-25.8 49.3-25.8 49.3-4.4 57.55-4.4 57.55 0 35.05 0ZM69.65 0L64.2 0 64.2-25.8 69.65-25.8 69.65-21.4 69.9-21.4Q70.3-22.4 70.92-23.33 71.55-24.25 72.45-24.93 73.34-25.6 74.55-26 75.75-26.4 77.34-26.4L77.34-26.4Q81.25-26.4 83.65-23.85 86.05-21.3 86.05-16.6L86.05-16.6 86.05 0 80.59 0 80.59-15.8Q80.59-21.95 75.25-21.95L75.25-21.95Q74.2-21.95 73.2-21.68 72.2-21.4 71.4-20.85 70.59-20.3 70.12-19.45 69.65-18.6 69.65-17.5L69.65-17.5 69.65 0ZM110.59 0L110.59-4.4 110.29-4.4Q109.14-2.05 107.24-0.73 105.34 0.6 102.49 0.6L102.49 0.6Q97.94 0.6 95.24-2.8 92.54-6.2 92.54-12.9L92.54-12.9Q92.54-19.6 95.24-23 97.94-26.4 102.49-26.4L102.49-26.4Q105.34-26.4 107.24-25.08 109.14-23.75 110.29-21.4L110.29-21.4 110.59-21.4 110.59-37 116.04-37 116.04 0 110.59 0ZM104.74-3.85L104.74-3.85Q105.94-3.85 106.99-4.15 108.04-4.45 108.84-5.05 109.64-5.65 110.12-6.53 110.59-7.4 110.59-8.6L110.59-8.6 110.59-17.2Q110.59-18.4 110.12-19.28 109.64-20.15 108.84-20.75 108.04-21.35 106.99-21.65 105.94-21.95 104.74-21.95L104.74-21.95Q101.64-21.95 99.97-20.05 98.29-18.15 98.29-15L98.29-15 98.29-10.8Q98.29-7.65 99.97-5.75 101.64-3.85 104.74-3.85ZM168.44-15L172.54-25.8 178.04-25.8 165.54 5Q164.54 7.5 162.91 8.75 161.29 10 158.24 10L158.24 10 153.89 10 153.89 5.6 159.99 5.6 162.34-0.35 151.94-25.8 157.64-25.8 161.74-15 164.94-6.15 165.24-6.15 168.44-15ZM194.99 0.6L194.99 0.6Q192.14 0.6 189.86-0.35 187.59-1.3 186.01-3.05 184.44-4.8 183.59-7.3 182.74-9.8 182.74-12.9L182.74-12.9Q182.74-16 183.59-18.5 184.44-21 186.01-22.75 187.59-24.5 189.86-25.45 192.14-26.4 194.99-26.4L194.99-26.4Q197.84-26.4 200.11-25.45 202.39-24.5 203.96-22.75 205.54-21 206.39-18.5 207.24-16 207.24-12.9L207.24-12.9Q207.24-9.8 206.39-7.3 205.54-4.8 203.96-3.05 202.39-1.3 200.11-0.35 197.84 0.6 194.99 0.6ZM194.99-3.7L194.99-3.7Q197.99-3.7 199.76-5.53 201.54-7.35 201.54-10.95L201.54-10.95 201.54-14.85Q201.54-18.45 199.76-20.28 197.99-22.1 194.99-22.1L194.99-22.1Q191.99-22.1 190.21-20.28 188.44-18.45 188.44-14.85L188.44-14.85 188.44-10.95Q188.44-7.35 190.21-5.53 191.99-3.7 194.99-3.7ZM230.33 0L230.33-4.4 230.08-4.4Q229.68-3.4 229.06-2.48 228.43-1.55 227.53-0.88 226.63-0.2 225.43 0.2 224.23 0.6 222.63 0.6L222.63 0.6Q218.73 0.6 216.33-1.95 213.93-4.5 213.93-9.2L213.93-9.2 213.93-25.8 219.38-25.8 219.38-10Q219.38-3.85 224.73-3.85L224.73-3.85Q225.78-3.85 226.78-4.13 227.78-4.4 228.58-4.95 229.38-5.5 229.86-6.33 230.33-7.15 230.33-8.3L230.33-8.3 230.33-25.8 235.78-25.8 235.78 0 230.33 0ZM243.78 0L243.78-4.4 250.63-4.4 250.63-21.4 243.78-21.4 243.78-25.8 256.08-25.8 256.08-18.95 256.38-18.95Q256.73-20.3 257.38-21.55 258.03-22.8 259.03-23.73 260.03-24.65 261.48-25.23 262.93-25.8 264.88-25.8L264.88-25.8 267.98-25.8 267.98-20.6 262.88-20.6Q259.88-20.6 257.98-18.82 256.08-17.05 256.08-14.05L256.08-14.05 256.08-4.4 265.43-4.4 265.43 0 243.78 0ZM314.98 0.6L314.98 0.6Q312.13 0.6 309.85-0.35 307.58-1.3 306-3.05 304.43-4.8 303.58-7.3 302.73-9.8 302.73-12.9L302.73-12.9Q302.73-16 303.58-18.5 304.43-21 306-22.75 307.58-24.5 309.85-25.45 312.13-26.4 314.98-26.4L314.98-26.4Q317.83-26.4 320.1-25.45 322.38-24.5 323.95-22.75 325.53-21 326.38-18.5 327.23-16 327.23-12.9L327.23-12.9Q327.23-9.8 326.38-7.3 325.53-4.8 323.95-3.05 322.38-1.3 320.1-0.35 317.83 0.6 314.98 0.6ZM314.98-3.7L314.98-3.7Q317.98-3.7 319.75-5.53 321.53-7.35 321.53-10.95L321.53-10.95 321.53-14.85Q321.53-18.45 319.75-20.28 317.98-22.1 314.98-22.1L314.98-22.1Q311.98-22.1 310.2-20.28 308.43-18.45 308.43-14.85L308.43-14.85 308.43-10.95Q308.43-7.35 310.2-5.53 311.98-3.7 314.98-3.7ZM334.57 0L330.97-25.8 335.62-25.8 338.12-4.1 338.57-4.1 342.42-25.8 347.72-25.8 351.52-4.1 351.97-4.1 354.52-25.8 358.97-25.8 355.37 0 348.67 0 345.22-20 344.77-20 341.27 0 334.57 0ZM369.62 0L364.17 0 364.17-25.8 369.62-25.8 369.62-21.4 369.87-21.4Q370.27-22.4 370.9-23.33 371.52-24.25 372.42-24.93 373.32-25.6 374.52-26 375.72-26.4 377.32-26.4L377.32-26.4Q381.22-26.4 383.62-23.85 386.02-21.3 386.02-16.6L386.02-16.6 386.02 0 380.57 0 380.57-15.8Q380.57-21.95 375.22-21.95L375.22-21.95Q374.17-21.95 373.17-21.68 372.17-21.4 371.37-20.85 370.57-20.3 370.1-19.45 369.62-18.6 369.62-17.5L369.62-17.5 369.62 0ZM423.92 0L423.92-37 429.37-37 429.37-21.4 429.67-21.4Q430.82-23.75 432.72-25.08 434.62-26.4 437.47-26.4L437.47-26.4Q442.02-26.4 444.72-23 447.42-19.6 447.42-12.9L447.42-12.9Q447.42-6.2 444.72-2.8 442.02 0.6 437.47 0.6L437.47 0.6Q434.62 0.6 432.72-0.73 430.82-2.05 429.67-4.4L429.67-4.4 429.37-4.4 429.37 0 423.92 0ZM435.22-3.85L435.22-3.85Q438.32-3.85 439.99-5.75 441.67-7.65 441.67-10.8L441.67-10.8 441.67-15Q441.67-18.15 439.99-20.05 438.32-21.95 435.22-21.95L435.22-21.95Q434.02-21.95 432.97-21.65 431.92-21.35 431.12-20.75 430.32-20.15 429.84-19.28 429.37-18.4 429.37-17.2L429.37-17.2 429.37-8.6Q429.37-7.4 429.84-6.53 430.32-5.65 431.12-5.05 431.92-4.45 432.97-4.15 434.02-3.85 435.22-3.85ZM470.31 0L470.31-4.4 470.06-4.4Q469.66-3.4 469.04-2.48 468.41-1.55 467.51-0.88 466.61-0.2 465.41 0.2 464.21 0.6 462.61 0.6L462.61 0.6Q458.71 0.6 456.31-1.95 453.91-4.5 453.91-9.2L453.91-9.2 453.91-25.8 459.36-25.8 459.36-10Q459.36-3.85 464.71-3.85L464.71-3.85Q465.76-3.85 466.76-4.13 467.76-4.4 468.56-4.95 469.36-5.5 469.84-6.33 470.31-7.15 470.31-8.3L470.31-8.3 470.31-25.8 475.76-25.8 475.76 0 470.31 0ZM495.01 0.6L495.01 0.6Q490.81 0.6 487.79-0.75 484.76-2.1 482.91-4.35L482.91-4.35 486.26-7.35Q487.96-5.5 490.09-4.53 492.21-3.55 495.11-3.55L495.11-3.55Q497.76-3.55 499.39-4.45 501.01-5.35 501.01-7.25L501.01-7.25Q501.01-8.05 500.71-8.6 500.41-9.15 499.86-9.5 499.31-9.85 498.59-10.05 497.86-10.25 497.06-10.35L497.06-10.35 492.96-11Q491.46-11.2 489.91-11.65 488.36-12.1 487.14-12.93 485.91-13.75 485.14-15.05 484.36-16.35 484.36-18.35L484.36-18.35Q484.36-22.3 487.39-24.35 490.41-26.4 495.36-26.4L495.36-26.4Q498.96-26.4 501.59-25.33 504.21-24.25 505.96-22.35L505.96-22.35 502.91-19.15Q501.91-20.3 500.06-21.28 498.21-22.25 495.16-22.25L495.16-22.25Q489.71-22.25 489.71-18.8L489.71-18.8Q489.71-17.15 490.89-16.53 492.06-15.9 493.66-15.7L493.66-15.7 497.76-15.05Q499.31-14.8 500.84-14.4 502.36-14 503.59-13.18 504.81-12.35 505.59-11.05 506.36-9.75 506.36-7.75L506.36-7.75Q506.36-3.85 503.34-1.63 500.31 0.6 495.01 0.6ZM526.56-30.5L526.56-30.5Q524.46-30.5 523.63-31.35 522.81-32.2 522.81-33.45L522.81-33.45 522.81-34.5Q522.81-35.75 523.63-36.6 524.46-37.45 526.51-37.45L526.51-37.45Q528.61-37.45 529.43-36.6 530.26-35.75 530.26-34.5L530.26-34.5 530.26-33.45Q530.26-32.2 529.43-31.35 528.61-30.5 526.56-30.5ZM515.01 0L515.01-4.4 523.81-4.4 523.81-21.4 515.01-21.4 515.01-25.8 529.26-25.8 529.26-4.4 537.51-4.4 537.51 0 515.01 0ZM549.6 0L544.15 0 544.15-25.8 549.6-25.8 549.6-21.4 549.85-21.4Q550.25-22.4 550.88-23.33 551.5-24.25 552.4-24.93 553.3-25.6 554.5-26 555.7-26.4 557.3-26.4L557.3-26.4Q561.2-26.4 563.6-23.85 566-21.3 566-16.6L566-16.6 566 0 560.55 0 560.55-15.8Q560.55-21.95 555.2-21.95L555.2-21.95Q554.15-21.95 553.15-21.68 552.15-21.4 551.35-20.85 550.55-20.3 550.08-19.45 549.6-18.6 549.6-17.5L549.6-17.5 549.6 0ZM585.5 0.6L585.5 0.6Q582.55 0.6 580.2-0.35 577.85-1.3 576.25-3.05 574.65-4.8 573.8-7.28 572.95-9.75 572.95-12.85L572.95-12.85Q572.95-15.95 573.83-18.45 574.7-20.95 576.28-22.73 577.85-24.5 580.1-25.45 582.35-26.4 585.1-26.4L585.1-26.4Q587.8-26.4 590-25.48 592.2-24.55 593.75-22.85 595.3-21.15 596.13-18.8 596.95-16.45 596.95-13.6L596.95-13.6 596.95-11.55 578.45-11.55 578.45-10.7Q578.45-7.65 580.35-5.73 582.25-3.8 585.6-3.8L585.6-3.8Q588.1-3.8 589.88-4.88 591.65-5.95 592.75-7.75L592.75-7.75 596.15-4.75Q594.85-2.5 592.18-0.95 589.5 0.6 585.5 0.6ZM585.1-22.25L585.1-22.25Q583.65-22.25 582.43-21.75 581.2-21.25 580.33-20.33 579.45-19.4 578.95-18.15 578.45-16.9 578.45-15.4L578.45-15.4 578.45-15.05 591.4-15.05 591.4-15.55Q591.4-18.6 589.68-20.43 587.95-22.25 585.1-22.25ZM615 0.6L615 0.6Q610.8 0.6 607.77-0.75 604.75-2.1 602.9-4.35L602.9-4.35 606.25-7.35Q607.95-5.5 610.07-4.53 612.2-3.55 615.1-3.55L615.1-3.55Q617.75-3.55 619.37-4.45 621-5.35 621-7.25L621-7.25Q621-8.05 620.7-8.6 620.4-9.15 619.85-9.5 619.3-9.85 618.57-10.05 617.85-10.25 617.05-10.35L617.05-10.35 612.95-11Q611.45-11.2 609.9-11.65 608.35-12.1 607.12-12.93 605.9-13.75 605.12-15.05 604.35-16.35 604.35-18.35L604.35-18.35Q604.35-22.3 607.37-24.35 610.4-26.4 615.35-26.4L615.35-26.4Q618.95-26.4 621.57-25.33 624.2-24.25 625.95-22.35L625.95-22.35 622.9-19.15Q621.9-20.3 620.05-21.28 618.2-22.25 615.15-22.25L615.15-22.25Q609.7-22.25 609.7-18.8L609.7-18.8Q609.7-17.15 610.87-16.53 612.05-15.9 613.65-15.7L613.65-15.7 617.75-15.05Q619.3-14.8 620.82-14.4 622.35-14 623.57-13.18 624.8-12.35 625.57-11.05 626.35-9.75 626.35-7.75L626.35-7.75Q626.35-3.85 623.32-1.63 620.3 0.6 615 0.6ZM645 0.6L645 0.6Q640.8 0.6 637.77-0.75 634.75-2.1 632.9-4.35L632.9-4.35 636.25-7.35Q637.95-5.5 640.07-4.53 642.2-3.55 645.1-3.55L645.1-3.55Q647.75-3.55 649.37-4.45 651-5.35 651-7.25L651-7.25Q651-8.05 650.7-8.6 650.4-9.15 649.85-9.5 649.3-9.85 648.57-10.05 647.85-10.25 647.05-10.35L647.05-10.35 642.95-11Q641.45-11.2 639.9-11.65 638.35-12.1 637.12-12.93 635.9-13.75 635.12-15.05 634.35-16.35 634.35-18.35L634.35-18.35Q634.35-22.3 637.37-24.35 640.4-26.4 645.35-26.4L645.35-26.4Q648.95-26.4 651.57-25.33 654.2-24.25 655.95-22.35L655.95-22.35 652.9-19.15Q651.9-20.3 650.05-21.28 648.2-22.25 645.15-22.25L645.15-22.25Q639.7-22.25 639.7-18.8L639.7-18.8Q639.7-17.15 640.87-16.53 642.05-15.9 643.65-15.7L643.65-15.7 647.75-15.05Q649.3-14.8 650.82-14.4 652.35-14 653.57-13.18 654.8-12.35 655.57-11.05 656.35-9.75 656.35-7.75L656.35-7.75Q656.35-3.85 653.32-1.63 650.3 0.6 645 0.6Z" opacity="1" transform="matrix(1,0,0,1,0,0)" fill="#111111" class="slogan-text-1" data-fill-palette-color="secondary" id="text-1"></path></svg></g></svg></g></svg></g></svg></g><g><svg viewBox="0 0 57.295147929261304 66.26958907963255" height="66.26958907963255" width="57.295147929261304"><g><svg xmlns="http://www.w3.org/2000/svg" xmlns:xlink="http://www.w3.org/1999/xlink" version="1.1" x="0" y="0" viewBox="10.162866459947898 3.9999999999999982 79.54539952592582 92.0050149144674" enable-background="new 0 0 100 100" xml:space="preserve" height="66.26958907963255" width="57.295147929261304" class="icon-icon-0" data-fill-palette-color="accent" id="icon-0"><path d="M14.9 38.8H20c1 0 1.6 1.1 1.1 1.9l-1 1.8-1.1 0c-1.1 0-2.2 0-3.3 0-0.3 0-0.6 0-0.9 0.1l-1.1-1.8C13.3 39.9 13.9 38.8 14.9 38.8zM16.1 70.7h2.8c3.7 0 6.5-3.4 5.8-7.1L23.3 57c-0.3-1.4-1.6-2.3-3.2-2.3h-1.2-2.8-1.2c-1.6 0-2.9 1-3.2 2.3l-1.4 6.6C9.5 67.2 12.3 70.7 16.1 70.7zM29.1 23.7c5.5 0 9.9-4.4 9.8-9.8 0-5.6-4.4-9.9-10-9.9-5.4 0-9.8 4.5-9.7 10C19.2 19.4 23.7 23.8 29.1 23.7zM11.3 48.7c0 2.5 1.8 4.3 4.4 4.3 5.8 0 11.8 0 17.6 0 1.8 0 2.8-0.9 2.8-2.9 0-2.7 0-5.5 0-8.2 0-0.1 0-0.1 0.1-0.5 2.8 4.3 5.6 8.4 8.3 12.6-0.3 0.3-0.6 0.5-1 0.7-3.5 2.2-7 4.4-10.5 6.4-1.7 1-2.4 2.5-2.4 4.4 0 8.4 0.1 16.9 0 25.3 0 3.1 2 5.1 5.2 5.2 3.1 0.1 5.1-1.3 5.6-3.8 0.1-0.5 0.1-1 0.1-1.5 0-7.1-0.1-14.3-0.1-21.4 0-0.5 0-1 0.6-1.4 3.3-1.9 6.7-3.9 10.1-5.8l4.2-3.4c0.6-0.5 7.2-6.1 2.9-13.1-3.4-5.5-6.8-10.9-10.2-16.4-0.2-0.4-0.5-0.7-0.7-1.2 0.4-0.1 0.7-0.1 0.9-0.1 4 0 8.1 0 12.1-0.1 0.8 0 1.1 0.2 1.5 0.8 1.4 2.3 2.9 4.6 4.3 6.9 1.4 2.3 4 3 6 1.7 2.4-1.2 2.9-3.8 1.5-6.1-2-3.3-4-6.6-6-9.9-0.8-1.3-1.8-1.8-3.2-1.9-6.6 0-13.3 0-19.9 0.1-1.2 0.1-2.6 0.5-3.6 1.1-3.7 2.3-7.2 4.8-10.9 7.2-2 1.3-3 3.1-3 5.5 0 3.2 0 6.5 0 9.7-0.1 0.4 0 0.8 0 1.3-0.4 0-0.9 0-1.2 0-3.7 0-7.2 0-10.9 0C13 44.5 11.3 46.2 11.3 48.7zM86.9 60.1c-1.5-0.9-3-0.8-4.6-0.1-4.1 1.7-8.2 3.4-12.3 5.1-0.4 0.2-0.8 0.3-1.3 0.5-0.2-0.4-0.3-0.8-0.5-1.2-1.7-4.1-1.5-3.6-3.3-7.7-0.1-0.1-0.7-1.6-1.3-2.8-1 3.4-3.3 6-5.2 7.6l-2.6 2.1c1.8 4.3 3.6 8.7 5.4 12.9 1 2.5 2.4 3.1 5 2 6.7-2.8 13.4-5.6 20.1-8.4 2-0.6 3.4-2 3.4-4.2C89.8 63.5 89 61.5 86.9 60.1z" fill="#ff4136" data-fill-palette-color="accent"></path></svg></g></svg></g></svg></g><defs></defs></svg><rect width="395.52" height="56.13008495590554" fill="none" stroke="none" visibility="hidden"></rect></g></svg></g></svg>